<svg width="20" height="20" viewBox="0 0 20 20" fill="none" xmlns="http://www.w3.org/2000/svg">
<path fill-rule="evenodd" clip-rule="evenodd" d="M9.75 0.25C4.36522 0.25 0 4.61522 0 10C0 15.3848 4.36522 19.75 9.75 19.75C15.1348 19.75 19.5 15.3848 19.5 10C19.4943 4.61758 15.1324 0.255684 9.75 0.25ZM9.75 18.25C5.19365 18.25 1.5 14.5563 1.5 10C1.5 5.44365 5.19365 1.75 9.75 1.75C14.3063 1.75 18 5.44365 18 10C17.9948 14.5542 14.3042 18.2448 9.75 18.25ZM13.9144 4.82875L7.91438 7.82875C7.76932 7.90162 7.65162 8.01932 7.57875 8.16438L4.57875 14.1644C4.46237 14.397 4.47478 14.6732 4.61155 14.8944C4.74832 15.1156 4.98993 15.2502 5.25 15.25C5.36643 15.2498 5.48127 15.2229 5.58563 15.1712L11.5856 12.1713C11.7307 12.0984 11.8484 11.9807 11.9213 11.8356L14.9212 5.83563C15.0664 5.54669 15.0101 5.19724 14.7814 4.96859C14.5528 4.73995 14.2033 4.68358 13.9144 4.82875ZM10.6875 10.9375L6.92719 12.8228L8.8125 9.0625L12.5766 7.18094L10.6875 10.9375Z" fill="#528F73"/>
</svg>
