<svg width="20" height="21" viewBox="0 0 20 21" fill="none" xmlns="http://www.w3.org/2000/svg">
<path fill-rule="evenodd" clip-rule="evenodd" d="M12.5 6.25C14.1569 6.25 15.5 4.90685 15.5 3.25C15.5 1.59315 14.1569 0.25 12.5 0.25C10.8431 0.25 9.5 1.59315 9.5 3.25C9.5 4.90685 10.8431 6.25 12.5 6.25ZM12.5 1.75C13.3284 1.75 14 2.42157 14 3.25C14 4.07843 13.3284 4.75 12.5 4.75C11.6716 4.75 11 4.07843 11 3.25C11 2.42157 11.6716 1.75 12.5 1.75ZM18.8103 11.1888C18.7531 11.215 18.1081 11.4963 16.9662 11.4963C15.6678 11.4963 13.7272 11.1325 11.2766 9.62125C10.9036 10.6801 10.4193 11.6964 9.83187 12.6531C10.887 12.9779 11.8794 13.4791 12.7672 14.1353C14.555 15.4984 15.5 17.4391 15.5 19.75C15.5 20.1642 15.1642 20.5 14.75 20.5C14.3358 20.5 14 20.1642 14 19.75C14 15.8406 10.7478 14.4334 8.92437 13.9516C8.87281 14.0172 8.81938 14.0837 8.76594 14.1484C6.92469 16.3797 4.6175 17.5403 2.05063 17.5403C1.75826 17.5417 1.46601 17.5282 1.175 17.5C0.760786 17.4586 0.458579 17.0892 0.5 16.675C0.541421 16.2608 0.910786 15.9586 1.325 16C3.755 16.2419 5.86906 15.2978 7.60625 13.1875C8.77719 11.7681 9.575 10.0366 9.97344 8.78125C6.32469 6.65781 3.99406 8.46531 3.96875 8.485C3.76073 8.66263 3.47251 8.71292 3.21663 8.61623C2.96075 8.51955 2.7778 8.29123 2.73922 8.02042C2.70064 7.74962 2.81255 7.47929 3.03125 7.315C3.17188 7.2025 6.52063 4.59625 11.4228 7.93094C15.6856 10.8288 18.1663 9.835 18.1897 9.82375C18.4342 9.70827 18.722 9.73337 18.9428 9.88946C19.1637 10.0455 19.2834 10.3084 19.2561 10.5775C19.2289 10.8466 19.0589 11.0801 18.8113 11.1888H18.8103Z" fill="#528F73"/>
</svg>
